<svg width="200" height="200" fill="none" xmlns="http://www.w3.org/2000/svg"><path fill="#79C8C7" d="M100 200h100V100H100z"/><path fill-rule="evenodd" clip-rule="evenodd" d="M100 200a100 100 0 110-200 100 100 0 010 200zm0-67a33 33 0 110-66 33 33 0 010 66z" fill="#012F34"/><path fill-rule="evenodd" clip-rule="evenodd" d="M200 156h-4v4h4v-4zm-11 0h4v4h-4v-4zm0 8h4v4h-4v-4zm4 8h-4v4h4v-4zm-4 8h4v4h-4v-4zm4 8h-4v4h4v-4zm-4 8h4v4h-4v-4zm-3-40h-4v4h4v-4zm0 8h-4v4h4v-4zm-4 8h4v4h-4v-4zm4 8h-4v4h4v-4zm-4 8h4v4h-4v-4zm4 8h-4v4h4v-4zm14-32h-4v4h4v-4zm-21-8h-4v4h4v-4zm0 8h-4v4h4v-4zm-4 8h4v4h-4v-4zm4 8h-4v4h4v-4zm-4 8h4v4h-4v-4zm4 8h-4v4h4v-4zm21-24h-4v4h4v-4zm-28-16h-4v4h4v-4zm0 8h-4v4h4v-4zm-4 8h4v4h-4v-4zm4 8h-4v4h4v-4zm-4 8h4v4h-4v-4zm4 8h-4v4h4v-4zm28-16h-4v4h4v-4zm-35-24h-4v4h4v-4zm0 8h-4v4h4v-4zm-4 8h4v4h-4v-4zm4 8h-4v4h4v-4zm-4 8h4v4h-4v-4zm4 8h-4v4h4v-4zm35-8h-4v4h4v-4zm-42-32h-4v4h4v-4zm0 8h-4v4h4v-4zm-4 8h4v4h-4v-4zm4 8h-4v4h4v-4zm-4 8h4v4h-4v-4zm4 8h-4v4h4v-4zm42 0h-4v4h4v-4zm-49-40h-4v4h4v-4zm0 8h-4v4h4v-4zm-4 8h4v4h-4v-4zm4 8h-4v4h4v-4zm-4 8h4v4h-4v-4zm4 8h-4v4h4v-4z" fill="#F67E7E"/></svg>